<!DOCTYPE svg PUBLIC "-//W3C//DTD SVG 20010904//EN" "http://www.w3.org/TR/2001/REC-SVG-20010904/DTD/svg10.dtd">
<svg version="1.0" xmlns="http://www.w3.org/2000/svg" width="1076px" height="1076px" viewBox="0 0 10760 10760" preserveAspectRatio="xMidYMid meet">
<g id="layer101" fill="#ffffff" stroke="none">
 <path d="M4405 10634 c-908 -169 -1744 -564 -2465 -1164 -156 -130 -514 -487 -642 -640 -677 -812 -1089 -1756 -1218 -2790 -58 -468 -50 -1000 21 -1469 208 -1372 959 -2625 2073 -3459 824 -617 1775 -974 2808 -1053 233 -17 793 -6 1013 20 389 48 715 121 1075 241 991 330 1831 921 2500 1755 119 149 340 474 436 640 826 1440 938 3181 304 4720 -127 307 -348 711 -540 987 -313 450 -704 861 -1135 1193 -657 506 -1448 862 -2241 1010 -77 14 -149 28 -161 30 l-23 5 0 -1870 0 -1870 620 0 c341 0 620 -4 620 -9 0 -4 52 -342 115 -751 63 -409 115 -749 115 -756 0 -12 -122 -14 -736 -14 l-735 0 3 -602 c3 -536 6 -610 21 -663 70 -240 184 -388 372 -481 174 -86 188 -87 698 -92 l447 -3 0 -649 c0 -609 -1 -649 -17 -654 -32 -10 -364 -55 -518 -70 -408 -41 -806 -46 -1035 -12 -833 124 -1395 642 -1569 1446 -52 244 -54 277 -58 1053 l-4 727 -675 0 -674 0 0 765 0 765 675 0 675 0 0 1870 c0 1029 -3 1870 -7 1869 -5 0 -66 -12 -138 -25z"/>
 </g>

</svg>