<?xml version="1.0" encoding="utf-8"?>
<!-- Generator: Adobe Illustrator 21.1.0, SVG Export Plug-In . SVG Version: 6.00 Build 0)  -->
<svg version="1.1" id="Logo" xmlns="http://www.w3.org/2000/svg" xmlns:xlink="http://www.w3.org/1999/xlink" x="0px" y="0px"
	 viewBox="0 0 92.2 92.3" style="enable-background:new 0 0 92.2 92.3;" xml:space="preserve">
<style type="text/css">
	.st0{fill:#FFFFFF;}
</style>
<g>
	<path class="st0" d="M92.2,17.7c-3.4,1.5-7,2.5-10.9,3c3.9-2.3,6.9-6,8.3-10.5c-3.7,2.2-7.7,3.7-12,4.6c-3.5-3.7-8.4-6-13.8-6
		c-10.4,0-18.9,8.5-18.9,18.9c0,1.5,0.2,2.9,0.5,4.3c-15.7-0.8-29.7-8.3-39-19.8c-1.6,2.8-2.6,6-2.6,9.5c0,6.6,3.3,12.4,8.4,15.7
		c-3.1-0.1-6-0.9-8.6-2.4c0,0.1,0,0.2,0,0.2c0,9.2,6.5,16.8,15.2,18.5c-1.6,0.4-3.3,0.7-5,0.7c-1.2,0-2.4-0.1-3.6-0.3
		c2.4,7.5,9.4,13,17.7,13.1c-6.5,5.1-14.6,8.1-23.5,8.1c-1.5,0-3-0.1-4.5-0.3c8.4,5.4,18.3,8.5,29,8.5C63.8,83.8,82.8,55,82.8,30
		c0-0.8,0-1.6-0.1-2.4C86.5,24.8,89.7,21.5,92.2,17.7L92.2,17.7z"/>
</g>
</svg>
